<svg xmlns="http://www.w3.org/2000/svg" viewBox="0 0 29.26 40.35"><defs><style>.cls-1,.cls-2{fill:#fecc00;}.cls-2{opacity:0.3;}</style></defs><g id="Layer_2" data-name="Layer 2"><g id="Layer_1-2" data-name="Layer 1"><polygon class="cls-1" points="21.39 33.16 15.91 33.16 15.91 27.69 14.2 27.69 14.2 33.16 8.72 33.16 8.72 34.88 14.2 34.88 14.2 40.35 15.91 40.35 15.91 34.88 21.39 34.88 21.39 33.16"/><path class="cls-1" d="M29.26,5.23v-2H24V0H22V3.23H8.34V.12h-2V3.23H0v2H6.34v6.84H0v2H6.34V21H0v2H29.26V21H24v-6.9h5.27v-2H24V5.23ZM22,21H8.34v-6.9H22Zm0-8.9H8.34V5.23H22Z"/><rect class="cls-2" y="12.91" width="29.23" height="9.11"/></g></g></svg>