<svg xmlns="http://www.w3.org/2000/svg" viewBox="0 0 121.22 135.3"><defs><style>.cls-1{fill:#505050;}.cls-2{fill:#707070;}.cls-3{fill:#fecc00;}</style></defs><g id="Слой_2" data-name="Слой 2"><g id="Слой_1-2" data-name="Слой 1"><path class="cls-1" d="M112.6,135.3H27.72a8.61,8.61,0,0,1-8.62-8.62V8.62A8.61,8.61,0,0,1,27.72,0H90.27a10.09,10.09,0,0,1,6.57,2.43l20.87,17.91A10.07,10.07,0,0,1,121.22,28v98.69A8.61,8.61,0,0,1,112.6,135.3Z"/><path class="cls-2" d="M117.71,20.34,96.84,2.43A10,10,0,0,0,92.19.19v20.2a5.46,5.46,0,0,0,5.46,5.46H121A10,10,0,0,0,117.71,20.34Z"/><rect class="cls-2" y="18.26" width="67.98" height="36.24" rx="5.19"/><path class="cls-3" d="M20.66,28.58v2h-6v4h5.07v2H14.66v5.52H12.12V28.58Z"/><path class="cls-3" d="M20.27,40.85a1.5,1.5,0,0,1,.11-.55,1.37,1.37,0,0,1,.3-.45,1.42,1.42,0,0,1,.45-.3,1.48,1.48,0,0,1,1.12,0,1.54,1.54,0,0,1,.45.3,1.77,1.77,0,0,1,.3.45,1.5,1.5,0,0,1,.11.55,1.47,1.47,0,0,1-.11.56,1.77,1.77,0,0,1-.3.45,1.48,1.48,0,0,1-1.57.29,1.39,1.39,0,0,1-.45-.29,1.37,1.37,0,0,1-.3-.45A1.47,1.47,0,0,1,20.27,40.85Z"/><path class="cls-3" d="M37.08,42.13H35.13a.85.85,0,0,1-.54-.17,1,1,0,0,1-.31-.4l-1-2.77H27.66l-1,2.77a.9.9,0,0,1-.3.39.79.79,0,0,1-.53.18h-2l5.32-13.55h2.57ZM28.31,37h4.32L31,32.51c-.08-.2-.16-.44-.25-.71s-.18-.57-.27-.89c-.09.32-.17.62-.26.89s-.16.52-.24.73Z"/><path class="cls-3" d="M37.79,40.85a1.49,1.49,0,0,1,.1-.55,1.77,1.77,0,0,1,.3-.45,1.46,1.46,0,0,1,1.57-.3,1.31,1.31,0,0,1,.45.3,1.37,1.37,0,0,1,.3.45,1.33,1.33,0,0,1,.12.55,1.31,1.31,0,0,1-.12.56,1.37,1.37,0,0,1-.3.45,1.29,1.29,0,0,1-.45.29,1.46,1.46,0,0,1-1.11,0,1.44,1.44,0,0,1-.46-.29,1.77,1.77,0,0,1-.3-.45A1.47,1.47,0,0,1,37.79,40.85Z"/><path class="cls-3" d="M55.19,35.35A7.55,7.55,0,0,1,55,37.09a7.08,7.08,0,0,1-.53,1.55A6.88,6.88,0,0,1,53.61,40,6.44,6.44,0,0,1,52.46,41l3.43,3.75H53.81a2.55,2.55,0,0,1-.81-.12,1.77,1.77,0,0,1-.66-.45l-2-2.2a6.55,6.55,0,0,1-1,.2,8.67,8.67,0,0,1-1.05.07,7.46,7.46,0,0,1-2.8-.52A6.33,6.33,0,0,1,42,38.11a7.87,7.87,0,0,1,0-5.52,6.42,6.42,0,0,1,1.4-2.19A6.31,6.31,0,0,1,45.53,29a7.46,7.46,0,0,1,2.8-.52,7.29,7.29,0,0,1,2.81.53,6.26,6.26,0,0,1,3.55,3.63A7.36,7.36,0,0,1,55.19,35.35Zm-2.58,0a6.23,6.23,0,0,0-.3-2,4.23,4.23,0,0,0-.85-1.5,3.68,3.68,0,0,0-1.34-1,5.14,5.14,0,0,0-3.57,0,3.67,3.67,0,0,0-1.36,1,4.25,4.25,0,0,0-.86,1.5,6.82,6.82,0,0,0,0,4,4.25,4.25,0,0,0,.86,1.5,3.54,3.54,0,0,0,1.36.94,5,5,0,0,0,3.57,0,3.54,3.54,0,0,0,1.34-.94,4.23,4.23,0,0,0,.85-1.5A6.18,6.18,0,0,0,52.61,35.35Z"/><path class="cls-3" d="M56,40.85a1.49,1.49,0,0,1,.1-.55,1.77,1.77,0,0,1,.3-.45,1.46,1.46,0,0,1,1.57-.3,1.31,1.31,0,0,1,.45.3,1.37,1.37,0,0,1,.3.45,1.33,1.33,0,0,1,.12.55,1.31,1.31,0,0,1-.12.56,1.37,1.37,0,0,1-.3.45,1.29,1.29,0,0,1-.45.29,1.46,1.46,0,0,1-1.11,0,1.44,1.44,0,0,1-.46-.29,1.77,1.77,0,0,1-.3-.45A1.47,1.47,0,0,1,56,40.85Z"/><rect class="cls-3" x="36.91" y="72.84" width="66.5" height="6.08"/><rect class="cls-3" x="36.91" y="85.98" width="66.5" height="6.08"/><rect class="cls-3" x="36.91" y="99.14" width="66.5" height="6.08"/><rect class="cls-3" x="36.91" y="112.27" width="66.5" height="6.08"/></g></g></svg>