<svg xmlns="http://www.w3.org/2000/svg" viewBox="0 0 132.34 105.01"><defs><style>.cls-1{fill:#505050;stroke:#707070;}.cls-1,.cls-4{stroke-miterlimit:10;stroke-width:4px;}.cls-2{fill:#707070;}.cls-3{fill:#fecc00;}.cls-4{fill:none;stroke:#fecc00;}</style></defs><g id="Слой_2" data-name="Слой 2"><g id="Слой_1-2" data-name="Слой 1"><rect class="cls-1" x="2" y="2" width="128.34" height="101.01" rx="8.02"/><path class="cls-2" d="M9.57,2A7.57,7.57,0,0,0,2,9.57V24H18.9L34.32,2Z"/><polygon class="cls-2" points="44.77 2 29.1 24.02 51.99 24.02 67.41 2 44.77 2"/><path class="cls-2" d="M122.77,2h-9.33L97.76,24h32.58V9.57A7.57,7.57,0,0,0,122.77,2Z"/><polygon class="cls-2" points="77.86 2 62.19 24.02 87.56 24.02 102.99 2 77.86 2"/><path class="cls-3" d="M58.66,53.29V74.72a2.23,2.23,0,0,0,3.54,1.81L78,65.06a2.23,2.23,0,0,0-.12-3.69l-15.82-10A2.23,2.23,0,0,0,58.66,53.29Z"/><circle class="cls-4" cx="66.17" cy="63.76" r="24.25"/></g></g></svg>