<svg xmlns="http://www.w3.org/2000/svg" width="100" height="44" viewBox="0 0 100 44"><defs><style>.a{fill:none;}.b{fill:#fff;}.b,.c,.d{fill-rule:evenodd;}.c{fill:#2b2a29;}.d{fill:#fecc00;}</style></defs><g transform="translate(-218.108 -2545.231)"><rect class="a" width="100" height="44" transform="translate(218.108 2545.231)"/><path class="b" d="M1687.545,786.445h4.213a2.57,2.57,0,0,1,1.931.527,1.582,1.582,0,0,1,.219,1.272h-6.845Zm6.209,2.479-.395,1.492h-2.391l.329-1.229a1.093,1.093,0,0,0,.044-.263Zm-4.366,0-1.887,7H1685l1.865-7Zm9.807,4.98h2.655l-.527,2.018H1697.9a6.394,6.394,0,0,1-2.041-.263,2.6,2.6,0,0,1-1.229-.856,3.345,3.345,0,0,1-.592-1.6,4.752,4.752,0,0,1,.154-1.975,6.991,6.991,0,0,1,.921-2.062c.044-.088.11-.154.154-.241h3.05a3.226,3.226,0,0,0-.285.176,3.687,3.687,0,0,0-1.229,2.128,3.027,3.027,0,0,0-.109,1.426,1.324,1.324,0,0,0,.592.921,1.211,1.211,0,0,0,.592.241A7.883,7.883,0,0,0,1699.195,793.9Zm-3.357-5.66a4.35,4.35,0,0,1,.746-.68,4.915,4.915,0,0,1,1.689-.856,7.955,7.955,0,0,1,2.172-.263h3.4l-.483,1.8Zm8.732-1.8h1.777l.921-3.444h2.5l-.921,3.444h2.655l-.483,1.8h-6.933Zm3.6,2.479-.855,3.247a2.031,2.031,0,0,0-.044,1.448c.176.285.57.417,1.163.417h1.031l-.5,1.887h-2.3a2.118,2.118,0,0,1-1.909-.768,2.509,2.509,0,0,1-.153-2.194l1.075-4.037Zm7.723-3.576h-2.633l.636-2.348h2.633Zm-2.83,10.575h-2.633l1.865-7h2.633Zm-.57-7.679.483-1.8h2.633l-.483,1.8Zm5.99,2.94a2.688,2.688,0,0,0,.088,2.106,1.624,1.624,0,0,0,1.558.768,2.9,2.9,0,0,0,1.974-.768,4.317,4.317,0,0,0,1.207-2.106,2.8,2.8,0,0,0-.066-2.106c-.044-.044-.066-.11-.11-.154h2.962a5.461,5.461,0,0,1-.154,2.26,6.572,6.572,0,0,1-2.326,3.576,6.414,6.414,0,0,1-4.015,1.338,3.515,3.515,0,0,1-3.73-4.914,6.877,6.877,0,0,1,1.031-2.26h2.984c-.066.044-.132.11-.2.154A4.317,4.317,0,0,0,1718.48,791.184Zm-.987-2.94a4.833,4.833,0,0,1,.7-.636,6.346,6.346,0,0,1,4.037-1.338,3.855,3.855,0,0,1,3.291,1.338,3.03,3.03,0,0,1,.373.636Zm11.255-1.8h4.717a3.757,3.757,0,0,1,2.83.79,1.821,1.821,0,0,1,.395,1.009h-8.425Zm7.942,2.479a9.836,9.836,0,0,1-.2.987l-1.6,6.011h-2.523l1.536-5.7a2.105,2.105,0,0,0,.088-1.294Zm-6.121,0-1.865,7h-2.5l1.865-7Z" transform="translate(-1430.032 1779.328)"/><path class="c" d="M406.066,428.651l22.751-21.9,2.5,8.71,9.5-5.726,6.933,2.94,13.186-6.231,9.851,4.388L489.107,405l-18.539,7.635-10-4.19L447.4,414.675l-6.406-2.962-9.017,6.143,1.58,5.529-.965,3.335-2.764-7.854-12.966,3.883L406,432.03Zm22.9-12.067-1.119-3.2-6.341,5.4Z" transform="translate(-179.093 2149.035)"/><path class="d" d="M370.066,406.651l22.751-21.9,2.5,8.71,9.5-5.726,6.933,2.94,13.208-6.231,9.829,4.388L453.107,383l-18.539,7.635-10-4.19L411.4,392.675l-6.406-2.962-9.017,6.143,1.58,5.529-.965,3.335-2.764-7.854-12.944,3.883L370,410.03Zm22.9-12.067-1.119-3.2-6.341,5.4Z" transform="translate(-143.883 2170.552)"/></g></svg>