<svg xmlns="http://www.w3.org/2000/svg" width="38.176" height="38.291" viewBox="0 0 38.176 38.291"><defs><style>.a{fill:#fecc00;}</style></defs><g transform="translate(-761.791 -220.225)"><path class="a" d="M771.328,220.341c-1.1-.108-1.807-.116-1.917-.116v.116h-7.619v38.175h38.176V220.341Zm25.639,3v9.978c-2.426-.491-5.354-1.8-9.038-5.643a21.8,21.8,0,0,0-5.953-4.335Zm-32.176,21.876a20.022,20.022,0,0,0,4.535,4.1c5.151,3.1,9.891,3.874,13.7,4.5,2.883.474,4.7.829,5.781,1.7H764.791Zm27.684,10.3c-1.429-3.41-4.944-4-8.963-4.658-3.556-.584-7.983-1.31-12.64-4.11-2.693-1.62-5.412-5.488-6.081-6.478V223.341h6.333c3.166.328,10.01,1.587,14.64,6.412,4.533,4.724,8.18,6.132,11.2,6.617v19.146Z"/><path class="a" d="M783.83,234.728c-1.262-.742-2.453-1.442-3.366-2.093-4.074-2.9-8.295-3.643-10.755-1.884-1.746,1.249-2.3,3.476-1.509,6.107,1.367,4.572,10.255,8.538,16.025,9.369a16.078,16.078,0,0,0,2.288.179c2.232,0,3.76-.616,4.557-1.841a3.7,3.7,0,0,0,.54-2.921C790.969,238.923,787.339,236.791,783.83,234.728Zm4.726,8.2c-.138.211-1.148.726-3.9.329-5.794-.835-12.774-4.566-13.579-7.259-.233-.78-.493-2.182.381-2.808a2.629,2.629,0,0,1,1.526-.393,10.653,10.653,0,0,1,5.742,2.281c1.02.727,2.267,1.46,3.587,2.235,2.545,1.5,6.033,3.546,6.38,5.018A.7.7,0,0,1,788.556,242.929Z"/></g></svg>