<svg xmlns="http://www.w3.org/2000/svg" width="38.176" height="38.176" viewBox="0 0 38.176 38.176"><defs><style>.a{fill:#fecc00;}</style></defs><path class="a" d="M886.11,220.538A19.088,19.088,0,1,0,905.2,239.626,19.088,19.088,0,0,0,886.11,220.538ZM902.2,239.626a15.975,15.975,0,0,1-1.814,7.391l-5.2-3.233a9.953,9.953,0,0,0-3.7-12.57l2.825-5.4A16.079,16.079,0,0,1,902.2,239.626Zm-16.088,6.989a6.989,6.989,0,1,1,6.989-6.989A7,7,0,0,1,886.11,246.615Zm0-23.077a15.976,15.976,0,0,1,5.485.984L888.733,230a9.945,9.945,0,0,0-12.117,6.533l-6.025-1.081A16.1,16.1,0,0,1,886.11,223.538Zm-16.026,14.868,6.044,1.085c0,.045-.007.09-.007.135a9.936,9.936,0,0,0,1.67,5.526l-4.583,4.044a15.98,15.98,0,0,1-3.186-9.57C870.022,239.214,870.053,238.81,870.084,238.406Zm5.129,13.022,4.595-4.055a9.9,9.9,0,0,0,8.7,1.94l3.061,5.426a15.929,15.929,0,0,1-16.358-3.311Zm19.078,2.026-2.992-5.3a10.036,10.036,0,0,0,2.236-1.858l5.221,3.245A16.169,16.169,0,0,1,894.291,253.454Z" transform="translate(-867.022 -220.538)"/></svg>