<svg xmlns="http://www.w3.org/2000/svg" width="20.506" height="20.506" viewBox="0 0 20.506 20.506"><defs><style>.a{fill:#fecc00;}</style></defs><path class="a" d="M-1968.385,17V12.114a5.927,5.927,0,0,1-2.858-1.635A6.17,6.17,0,0,1-1973,6.139a6.169,6.169,0,0,1,1.757-4.341A5.891,5.891,0,0,1-1967,0a5.892,5.892,0,0,1,4.243,1.8A6.169,6.169,0,0,1-1961,6.139a6.17,6.17,0,0,1-1.757,4.341,5.952,5.952,0,0,1-2.4,1.5V17Zm-1.846-10.861A3.273,3.273,0,0,0-1967,9.444a3.273,3.273,0,0,0,3.231-3.306A3.272,3.272,0,0,0-1967,2.833,3.273,3.273,0,0,0-1970.231,6.139Z" transform="translate(1395.121 -1386.636) rotate(-45)"/></svg>