<svg xmlns="http://www.w3.org/2000/svg" width="32" height="32" viewBox="0 0 32 32"><defs><style>.a,.b,.e{fill:none;}.b{stroke:#fecc00;stroke-width:4px;}.c,.d{stroke:none;}.d{fill:#fecc00;}</style></defs><g transform="translate(-1593 -125)"><g class="a" transform="translate(1593 125)"><path class="c" d="M0,32V18H14V32ZM18,14V0H32V14ZM0,14V0H14V14Z"/><path class="d" d="M 10.00040054321289 28.00040054321289 L 10.00040054321289 22 L 4.000000476837158 22 L 4.000000476837158 28.00040054321289 L 10.00040054321289 28.00040054321289 M 28.00040054321289 10.00040054321289 L 28.00040054321289 4.000000476837158 L 22 4.000000476837158 L 22 10.00040054321289 L 28.00040054321289 10.00040054321289 M 10.00040054321289 10.00040054321289 L 10.00040054321289 4.000000476837158 L 4.000000476837158 4.000000476837158 L 4.000000476837158 10.00040054321289 L 10.00040054321289 10.00040054321289 M 14.00040054321289 32.00040054321289 L 2.716064386731887e-07 32.00040054321289 L 2.716064386731887e-07 18 L 14.00040054321289 18 L 14.00040054321289 32.00040054321289 Z M 32.00040054321289 14.00040054321289 L 18 14.00040054321289 L 18 2.716064386731887e-07 L 32.00040054321289 2.716064386731887e-07 L 32.00040054321289 14.00040054321289 Z M 14.00040054321289 14.00040054321289 L 2.716064386731887e-07 14.00040054321289 L 2.716064386731887e-07 2.716064386731887e-07 L 14.00040054321289 2.716064386731887e-07 L 14.00040054321289 14.00040054321289 Z"/></g><g class="b" transform="translate(1611 143)"><rect class="c" width="14" height="14"/><rect class="e" x="2" y="2" width="10" height="10"/></g></g></svg>