<svg xmlns="http://www.w3.org/2000/svg" xmlns:xlink="http://www.w3.org/1999/xlink" width="408.003" height="84.28" viewBox="0 0 408.003 84.28"><defs><style>.a{fill:url(#a);}.b{fill:#1a1a18;}.b,.c,.e{fill-rule:evenodd;}.c{fill:#fc0;}.d,.e{fill:#fff;}</style><linearGradient id="a" x1="0.5" y1="1.251" x2="0.5" y2="-0.356" gradientUnits="objectBoundingBox"><stop offset="0" stop-color="#1a1a18"/><stop offset="1" stop-color="#b1b2b3"/></linearGradient></defs><rect class="a" width="84.28" height="84.28" rx="9" transform="translate(10.257)"/><path class="b" d="M1.56,83.336l7.8-24.322L48.5,31.788,54.86,48.52,68.23,25.083l8.339,18.1,7.21-13.536,25.064-8.594L88.329,35.382,73.575,63.8l-5.987-19.5L50.453,76.3,41.17,51.846Z" transform="translate(-0.633 -8.548)"/><path class="c" d="M0,70.862,7.8,46.535,46.939,19.308,53.3,36.046,66.67,12.6l8.339,18.1,7.21-13.536L107.283,8.57,86.769,22.9,72.015,51.322,66.028,31.811,48.893,63.824,39.61,39.366Z" transform="translate(0 -3.48)"/><path class="d" d="M122.479,123.549a1.336,1.336,0,0,1-1.4,1.4h-4.6a1.336,1.336,0,0,1-1.4-1.4v-5.013h1.782V123.4h3.884V105.19h1.782Z" transform="translate(-46.728 -42.714)"/><path class="d" d="M140.5,123.548a1.4,1.4,0,0,1-.386,1.016,1.336,1.336,0,0,1-1,.386h-4.971a1.4,1.4,0,0,1-1.022-.386,1.372,1.372,0,0,1-.392-1.016v-5.013h1.782V123.4h4.27v-4.71l-5.458-6.593a2.281,2.281,0,0,1-.594-1.5v-4a1.372,1.372,0,0,1,.392-1.01,1.4,1.4,0,0,1,1.022-.392h4.971a1.336,1.336,0,0,1,1,.392,1.39,1.39,0,0,1,.386,1.01v4.6h-1.752v-4.443h-4.27V110.9l5.482,6.593a2.263,2.263,0,0,1,.54,1.479Z" transform="translate(-53.896 -42.713)"/><path class="d" d="M670.854,44.46a6.806,6.806,0,0,1,3.35.915,6.342,6.342,0,0,1,2.512,2.584,7.169,7.169,0,0,1,0,7,6.575,6.575,0,0,1-2.536,2.578,6.652,6.652,0,0,1-6.783,0,6.427,6.427,0,0,1-2.495-2.59,7.163,7.163,0,0,1-.9-3.5,7.342,7.342,0,0,1,.944-3.516,6.534,6.534,0,0,1,2.542-2.548A6.884,6.884,0,0,1,670.854,44.46Zm0,1.372a5.44,5.44,0,0,0-2.7.731,5.239,5.239,0,0,0-2.049,2.067,5.831,5.831,0,0,0-.76,2.827,5.773,5.773,0,0,0,.7,2.8,5.274,5.274,0,0,0,2.008,2.091,5.437,5.437,0,0,0,7.484-2.079,5.75,5.75,0,0,0,0-5.631,5.12,5.12,0,0,0-2.019-2.079,5.447,5.447,0,0,0-2.667-.731ZM667.7,55.187l.054-7.436h3.777a2.893,2.893,0,0,1,1.134.3,1.782,1.782,0,0,1,.665.713,2.155,2.155,0,0,1,.267,1.063,2,2,0,0,1-.523,1.372,2.322,2.322,0,0,1-1.437.707,1.783,1.783,0,0,1,.5.279,3.82,3.82,0,0,1,.481.594c.053.071.232.374.529.9l.843,1.5h-1.817L671.585,54a5.047,5.047,0,0,0-1-1.532,1.58,1.58,0,0,0-1.01-.315h-.38V55.2Zm1.5-4.211h.594a7.27,7.27,0,0,0,1.574-.1.921.921,0,0,0,.487-.35.963.963,0,0,0,.184-.594.9.9,0,0,0-.172-.552.962.962,0,0,0-.487-.35,6.712,6.712,0,0,0-1.574-.107h-.594Z" transform="translate(-269.624 -18.053)"/><path class="e" d="M199,68.959l5.043-26.549h5.648l-2.774,15.733a17.783,17.783,0,0,0-.368,3.3,2.78,2.78,0,0,0,.445,1.544,3.451,3.451,0,0,0,1.728,1.342,9.568,9.568,0,0,0,3.154.4H218.5l-.778,4.431Zm30.457-21.667h-5.44l.861-4.882h5.44ZM225.6,69.167h-5.44l3.463-19.642h5.44ZM241.3,65.1h2.691l2-11.362h-2.685a18.247,18.247,0,0,0-2.762.143,4.865,4.865,0,0,0-1.443.487,5.743,5.743,0,0,0-2.091,1.918,8.493,8.493,0,0,0-1.111,3.088q-.552,3.148.594,4.431c.79.849,2.376,1.277,4.781,1.277Zm7.317,3.356a10,10,0,0,1-2.851,5.939,8.625,8.625,0,0,1-5.939,1.895h-10.18l.7-3.991h9.283a3.825,3.825,0,0,0,2.417-.719,3.225,3.225,0,0,0,1.188-2.079l.053-.333h-4.217a15.223,15.223,0,0,1-4.627-.487A5.643,5.643,0,0,1,232.071,67a6.961,6.961,0,0,1-1.592-3.314,11.368,11.368,0,0,1,0-4.312,13.566,13.566,0,0,1,1.5-4.247,11.333,11.333,0,0,1,2.738-3.308,9.123,9.123,0,0,1,3.261-1.782,16.28,16.28,0,0,1,4.514-.535h9.438l-3.338,18.935Zm8.909-26.05h5.144l-1.253,7.127h4.615c2.881,0,4.876.594,5.939,1.7s1.42,2.97.974,5.494l-2.2,12.473h-5.215l2.085-11.843c.238-1.342.154-2.263-.255-2.744a3.4,3.4,0,0,0-2.6-.731h-4.158l-2.7,15.318h-5.1l4.716-26.757Zm19.244,7.127h3.653l1.253-7.127h5.179L285.6,49.537h5.458l-.671,3.9h-5.476l-1.4,7.941a4.243,4.243,0,0,0,.214,3.029c.4.594,1.218.843,2.453.843h2.132l-.695,3.914h-4.752a4.926,4.926,0,0,1-4.116-1.586,5.626,5.626,0,0,1-.725-4.561l1.711-9.58h-3.653l.689-3.914Zm17.367,0-3.463,19.642h5.179l2.7-15.318h4.158c1.372,0,2.251.22,2.631.653s.434,1.39.178,2.857l-2.085,11.808h5.179l2.2-12.473q.677-3.855-.921-5.53t-6.017-1.669ZM322.343,47.3H316.9l.891-4.894h5.44l-.855,4.882Zm-3.861,21.875h-5.446L316.5,49.537h5.446Zm7.941-19.642H336.2q4.419,0,6.017,1.669t.921,5.53l-2.192,12.473H335.76L337.845,57.4q.38-2.2-.178-2.857c-.38-.434-1.259-.653-2.631-.653h-4.158l-2.7,15.318H323l3.463-19.642Zm30.125,15.579h2.691l2-11.362h-2.685a18.247,18.247,0,0,0-2.762.143,4.864,4.864,0,0,0-1.443.487,5.743,5.743,0,0,0-2.114,1.907,8.493,8.493,0,0,0-1.087,3.088q-.552,3.148.594,4.431c.79.849,2.376,1.277,4.781,1.277Zm7.317,3.356a10,10,0,0,1-2.851,5.939,8.625,8.625,0,0,1-5.939,1.895H344.9l.7-3.991h9.283A3.825,3.825,0,0,0,357.3,71.6a3.2,3.2,0,0,0,1.188-2.079l.059-.333h-4.217A15.223,15.223,0,0,1,349.7,68.7a5.643,5.643,0,0,1-2.376-1.681,6.961,6.961,0,0,1-1.568-3.308,11.368,11.368,0,0,1,0-4.3,13.566,13.566,0,0,1,1.5-4.247A11.333,11.333,0,0,1,350,51.853a9.123,9.123,0,0,1,3.261-1.782,16.28,16.28,0,0,1,4.514-.535H367.2Zm19.659-21.465a6.809,6.809,0,0,0-5.423,2.215q-1.93,2.215-2.815,7.294c-.523,2.97-.392,5.007.374,6.207s2.376,1.782,4.751,1.782h9.242l-.82,4.656h-9.5a17.105,17.105,0,0,1-4.858-.535,7.959,7.959,0,0,1-5.393-6.082,16.678,16.678,0,0,1,.083-6.29q1.259-7.127,4.924-10.471t10.1-3.38h9.349l-.808,4.585Zm13.661-4.585L392.47,69.179h5.144l2.7-15.318h4.158a3.363,3.363,0,0,1,2.6.731,3.51,3.51,0,0,1,.255,2.744l-2.085,11.843h5.209l2.192-12.473q.671-3.783-.968-5.494c-1.087-1.134-3.083-1.7-5.939-1.7h-4.615l1.253-7.127Zm25.729,22.8h6.5l.689-4.057H423.99a5.1,5.1,0,0,0-2.607.493,2.376,2.376,0,0,0-.992,1.711,1.479,1.479,0,0,0,.3,1.449,3.8,3.8,0,0,0,2.192.41Zm-4.158-15.692h10.614q4.015,0,5.732,1.847c1.146,1.235,1.5,3.065,1.069,5.488L434,69.167H420.076a5.409,5.409,0,0,1-4.241-1.473A4.728,4.728,0,0,1,415,63.536a7.076,7.076,0,0,1,2.655-4.8q2.061-1.455,6.272-1.461h6.818l.089-.487a2.373,2.373,0,0,0-.594-2.453,6.184,6.184,0,0,0-3.564-.713h-8.624l.713-4.063Zm23.253,0h8.713q3.065,0,4.1,1.1t.552,3.855l-.594,3.284h-4.959l.475-2.542a1.969,1.969,0,0,0-.137-1.55c-.226-.261-.826-.392-1.782-.392H446.56l-2.8,15.876h-5.185l3.469-19.642Zm15.585,0h3.647L462.5,42.4h5.179l-1.253,7.127H471.9l-.677,3.914h-5.482l-1.4,7.941a4.269,4.269,0,0,0,.208,3.029,2.82,2.82,0,0,0,2.453.843h2.132l-.689,3.914H463.7a4.926,4.926,0,0,1-4.116-1.586q-1.247-1.586-.725-4.561l1.7-9.58h-3.653Z" transform="translate(-80.806 -17.209)"/></svg>