<svg id="Layer_2" data-name="Layer 2" xmlns="http://www.w3.org/2000/svg" xmlns:xlink="http://www.w3.org/1999/xlink" width="390.949" height="80.757" viewBox="0 0 390.949 80.757">
  <defs>
    <linearGradient id="linear-gradient" x1="0.5" y1="1.251" x2="0.5" y2="-0.356" gradientUnits="objectBoundingBox">
      <stop offset="0" stop-color="#1a1a18"/>
      <stop offset="1" stop-color="#b1b2b3"/>
    </linearGradient>
  </defs>
  <g id="Layer_1" data-name="Layer 1">
    <rect id="Rectangle_11" data-name="Rectangle 11" width="80.757" height="80.757" rx="10" transform="translate(9.829)" fill="url(#linear-gradient)"/>
    <path id="Path_16" data-name="Path 16" d="M1.56,80.733,9.038,57.428l37.5-26.088,6.1,16.032L65.443,24.914l7.99,17.341,6.909-12.97,24.017-8.235L84.7,34.783,70.565,62.009l-5.737-18.69L48.409,73.995l-8.9-23.436Z" transform="translate(-0.672 -9.07)" fill="#1a1a18" fill-rule="evenodd"/>
    <path id="Path_17" data-name="Path 17" d="M0,68.259,7.478,44.948l37.5-26.088,6.1,16.038L63.883,12.434l7.99,17.341,6.909-12.97L102.8,8.57,83.142,22.3,69,49.535l-5.737-18.7L46.849,61.515l-8.9-23.436Z" transform="translate(0 -3.693)" fill="#fc0" fill-rule="evenodd"/>
    <path id="Path_18" data-name="Path 18" d="M122.17,122.781a1.281,1.281,0,0,1-1.343,1.343h-4.4a1.28,1.28,0,0,1-1.343-1.343v-4.8h1.707v4.661h3.722V105.19h1.707Z" transform="translate(-49.585 -45.325)" fill="#fff"/>
    <path id="Path_19" data-name="Path 19" d="M140.179,122.78a1.337,1.337,0,0,1-.37.973,1.281,1.281,0,0,1-.962.37h-4.763a1.338,1.338,0,0,1-.979-.37,1.315,1.315,0,0,1-.376-.973v-4.8h1.707v4.661h4.092v-4.513l-5.23-6.317a2.185,2.185,0,0,1-.569-1.44v-3.836a1.315,1.315,0,0,1,.376-.967,1.337,1.337,0,0,1,.979-.376h4.763a1.281,1.281,0,0,1,.962.376,1.332,1.332,0,0,1,.37.967v4.4H138.5V106.68h-4.092v3.984l5.253,6.317a2.168,2.168,0,0,1,.518,1.417Z" transform="translate(-57.191 -45.324)" fill="#fff"/>
    <path id="Path_20" data-name="Path 20" d="M670.568,44.46a6.522,6.522,0,0,1,3.21.876,6.078,6.078,0,0,1,2.407,2.476,6.869,6.869,0,0,1,0,6.7,6.3,6.3,0,0,1-2.43,2.47,6.374,6.374,0,0,1-6.5,0,6.158,6.158,0,0,1-2.39-2.481A6.863,6.863,0,0,1,664,51.147a7.035,7.035,0,0,1,.905-3.369,6.259,6.259,0,0,1,2.436-2.441A6.6,6.6,0,0,1,670.568,44.46Zm0,1.315a5.213,5.213,0,0,0-2.584.7,5.019,5.019,0,0,0-1.963,1.981,5.549,5.549,0,0,0-.057,5.4,5.054,5.054,0,0,0,1.924,2,5.21,5.21,0,0,0,7.171-1.992,5.509,5.509,0,0,0,0-5.4,4.907,4.907,0,0,0-1.935-1.992A5.219,5.219,0,0,0,670.568,45.775Zm-3.022,8.964.051-7.125h3.62a2.772,2.772,0,0,1,1.087.29,1.706,1.706,0,0,1,.637.683A2.064,2.064,0,0,1,673.2,49.6a1.917,1.917,0,0,1-.5,1.315,2.226,2.226,0,0,1-1.377.677,1.707,1.707,0,0,1,.484.267,3.665,3.665,0,0,1,.461.569c.051.068.222.359.506.865l.808,1.44h-1.742l-.569-1.138a4.836,4.836,0,0,0-.962-1.468,1.514,1.514,0,0,0-.968-.3h-.364v2.92ZM668.98,50.7h.569a6.966,6.966,0,0,0,1.508-.091.882.882,0,0,0,.467-.336.922.922,0,0,0,.176-.569.859.859,0,0,0-.165-.529.922.922,0,0,0-.467-.336,6.43,6.43,0,0,0-1.508-.1h-.569Z" transform="translate(-286.109 -19.157)" fill="#fff"/>
    <path id="Path_21" data-name="Path 21" d="M199,67.848l4.832-25.439h5.412l-2.658,15.076a17.037,17.037,0,0,0-.353,3.164,2.663,2.663,0,0,0,.427,1.48,3.306,3.306,0,0,0,1.656,1.286,9.168,9.168,0,0,0,3.022.387h6.346l-.746,4.246Zm29.184-20.761h-5.213l.825-4.678h5.213Zm-3.694,20.96h-5.213L222.6,49.226h5.213Zm15.042-3.893h2.578l1.918-10.887h-2.572a17.483,17.483,0,0,0-2.646.137,4.661,4.661,0,0,0-1.383.467,5.5,5.5,0,0,0-2,1.838,8.138,8.138,0,0,0-1.064,2.959q-.529,3.016.569,4.246c.757.814,2.276,1.224,4.581,1.224Zm7.011,3.215a9.585,9.585,0,0,1-2.732,5.691,8.264,8.264,0,0,1-5.691,1.815h-9.755l.672-3.824h8.9a3.665,3.665,0,0,0,2.316-.689,3.09,3.09,0,0,0,1.138-1.992l.051-.319H237.4a14.586,14.586,0,0,1-4.433-.467,5.406,5.406,0,0,1-2.276-1.611,6.67,6.67,0,0,1-1.525-3.176,10.893,10.893,0,0,1,0-4.132A13,13,0,0,1,230.6,54.6a10.858,10.858,0,0,1,2.624-3.17,8.742,8.742,0,0,1,3.124-1.707,15.6,15.6,0,0,1,4.325-.512h9.043l-3.2,18.143Zm8.537-24.961h4.929l-1.2,6.829h4.422c2.76,0,4.672.569,5.691,1.633s1.36,2.846.933,5.264l-2.106,11.951h-5l2-11.348a3.333,3.333,0,0,0-.245-2.629,3.254,3.254,0,0,0-2.487-.7h-3.984L255.45,68.087h-4.889l4.519-25.639Zm18.439,6.829h3.5l1.2-6.829h4.963l-1.2,6.829h5.23l-.643,3.739h-5.247l-1.343,7.609a4.066,4.066,0,0,0,.2,2.9c.381.569,1.167.808,2.35.808h2.043l-.666,3.75h-4.553a4.72,4.72,0,0,1-3.944-1.52,5.391,5.391,0,0,1-.694-4.371l1.639-9.18h-3.5l.66-3.75Zm16.641,0-3.318,18.821h4.963l2.589-14.677h3.984a3.489,3.489,0,0,1,2.521.626c.364.415.415,1.332.171,2.737l-2,11.314h4.963l2.106-11.951q.649-3.694-.882-5.3t-5.765-1.6Zm27.027-2.14h-5.219l.854-4.689h5.213l-.82,4.678Zm-3.7,20.96H308.27l3.318-18.821h5.219ZM321.1,49.238h9.368q4.234,0,5.765,1.6t.882,5.3l-2.1,11.951h-4.968l2-11.314q.364-2.106-.171-2.737a3.489,3.489,0,0,0-2.521-.626h-3.984l-2.589,14.677h-4.963l3.318-18.821Zm28.865,14.928h2.578l1.918-10.887h-2.572a17.484,17.484,0,0,0-2.646.137,4.661,4.661,0,0,0-1.383.467,5.5,5.5,0,0,0-2.026,1.827,8.139,8.139,0,0,0-1.041,2.959q-.529,3.016.569,4.246c.757.814,2.276,1.224,4.581,1.224Zm7.011,3.215a9.584,9.584,0,0,1-2.732,5.691,8.264,8.264,0,0,1-5.691,1.815H338.8l.672-3.824h8.9a3.665,3.665,0,0,0,2.316-.689,3.062,3.062,0,0,0,1.138-1.992l.057-.319h-4.041A14.587,14.587,0,0,1,343.4,67.6a5.407,5.407,0,0,1-2.276-1.611,6.67,6.67,0,0,1-1.5-3.17,10.892,10.892,0,0,1,0-4.12,13,13,0,0,1,1.44-4.069,10.858,10.858,0,0,1,2.624-3.17,8.742,8.742,0,0,1,3.124-1.707,15.6,15.6,0,0,1,4.325-.512h9.038l-3.2,18.143Zm18.838-20.568a6.524,6.524,0,0,0-5.2,2.123q-1.85,2.123-2.7,6.989c-.5,2.846-.376,4.8.359,5.947s2.276,1.707,4.553,1.707h8.855l-.785,4.462h-9.106a16.391,16.391,0,0,1-4.655-.512,7.626,7.626,0,0,1-5.168-5.828,15.982,15.982,0,0,1,.08-6.027q1.207-6.829,4.718-10.033t9.675-3.238H385.4l-.774,4.394ZM388.9,42.42l-4.519,25.639h4.928L391.9,53.381h3.984a3.223,3.223,0,0,1,2.487.7,3.363,3.363,0,0,1,.245,2.629l-2,11.348H401.6l2.1-11.951q.643-3.625-.928-5.264c-1.041-1.087-2.954-1.633-5.691-1.633h-4.422l1.2-6.829Zm24.654,21.843h6.226l.66-3.887h-5.856a4.883,4.883,0,0,0-2.5.472,2.276,2.276,0,0,0-.95,1.639,1.417,1.417,0,0,0,.29,1.389,3.641,3.641,0,0,0,2.1.393Zm-3.984-15.036h10.17q3.847,0,5.492,1.77c1.1,1.184,1.434,2.937,1.024,5.259l-2.077,11.792H410.835a5.183,5.183,0,0,1-4.064-1.411,4.53,4.53,0,0,1-.8-3.984,6.78,6.78,0,0,1,2.544-4.6q1.975-1.394,6.01-1.4h6.533l.085-.467a2.274,2.274,0,0,0-.569-2.35,5.926,5.926,0,0,0-3.415-.683H408.9l.683-3.893Zm22.281,0H440.2q2.937,0,3.927,1.053t.529,3.694l-.569,3.147h-4.752l.455-2.436a1.886,1.886,0,0,0-.131-1.485c-.216-.25-.791-.376-1.707-.376h-1.741l-2.681,15.212h-4.968l3.324-18.821Zm14.934,0h3.494l1.206-6.829h4.963l-1.2,6.829H460.5l-.649,3.75h-5.253l-1.337,7.609a4.09,4.09,0,0,0,.2,2.9,2.7,2.7,0,0,0,2.35.808h2.043l-.66,3.75h-4.553a4.72,4.72,0,0,1-3.944-1.52A5.367,5.367,0,0,1,448,62.157l1.633-9.18h-3.5Z" transform="translate(-85.746 -18.261)" fill="#fff" fill-rule="evenodd"/>
  </g>
</svg>
